<svg version="1.1" id="Layer_1" xmlns="http://www.w3.org/2000/svg" x="0" y="0" viewBox="0 0 261 799" xml:space="preserve"><style>.st0{fill:none;stroke:#37100a;stroke-width:.4734;stroke-miterlimit:10}.st1{fill:#e0b6fb}.st3,.st4{opacity:.49;fill:#e6edf0;enable-background:new}.st4{opacity:.37;fill:#7400c7}.st5{fill:#002075}.st7{opacity:.37;fill:#2d2f2e;enable-background:new}.st8{fill:#304d78}.st14{opacity:.37;fill:#002075;enable-background:new}.st15{fill:#7400c7}.st17{fill:#e0b6fb;enable-background:new}.st17,.st24{opacity:.49}.st24,.st30{enable-background:new}.st24{fill:#efdebf}.st30{opacity:.37;fill:#37100a}</style><path class="st0" d="M21.3 701.9l11.5 51.5m35.9-79.1l35 20.4M24.5 615l44.4 59.3M48.8 534.5L24.5 615m-2.4-382.3l-2.7 59.4m1.9 409.8L-.2 742.1m130-179.7l-41.7 8.4m-71.2-80.4l31.9 44.1m70.3-47.2l28.8 38.7M15.6 34.1L-.5 0m109.4 154.8L60.6 125M47.8 77.2L60.6 125m-50.5 37.9l47.6 20.2m60.6 303.5l-63.9-36.4m57.3-91.9l-66.3-16m22.7 47.3l-22.7-47.3m0 0L18 292.5m27.4 49.8L7.1 371.1m141-92.8l5.7 50.2m0 0l-40.2 30.3M48.8 534.5l38.8 37M24.3 82.8l-8.7-48.2m-16.1 71l24.8-22.8m-4.9 209.3L0 265.1M-.5 461l17.1 28.5m-9-117.9l44 79.5m-40.7-286l11.5 65.2m35.3-47.2l9.3 51.5M24.3 82.8l-14.2 80.1M68 388.4l-14.5 61.8m7.1-324.3l-50.5 37m7.2 129.4L67 234.6m.7 157.4l51.1 33.1m-5.2-66.3l-45.5 30.8m50.2 97l-69.5 47.9m103.8-142.4l47.1 15M8.1 372.5l60 17.3"/><ellipse transform="rotate(-47.273 199.725 407.211)" class="st1" cx="199.7" cy="407.2" rx="1.7" ry="1.7"/><path class="st3" d="M198.6 406.2c-.1.1-.2.3-.3.4 0 .1-.1.3-.1.4s0 .3.2.4c.1.1.3.2.5.1s.2-.4.1-.5c0-.1-.1-.1-.1-.2s-.1-.2 0-.3c0-.1.1-.2.2-.3.1-.1.3-.1.5-.2l.1-.1c0-.1-.4 0-.5 0-.3.1-.5.2-.6.3z"/><path class="st4" d="M200.9 408.1c-.7.7-1.6.6-1.6.6.5.1 1.3 0 1.8-.7.6-.8.1-1.8.1-1.7 0 .3.3 1.1-.3 1.8z"/><ellipse transform="rotate(-47.273 132.117 561.68)" class="st5" cx="132.1" cy="561.7" rx="2.8" ry="2.8"/><path class="st3" d="M130.2 560c-.2.2-.3.5-.4.8-.1.2-.2.5-.2.7s.1.5.3.7.6.3.9.2c.4-.2.3-.7.2-.8 0-.1-.1-.3-.2-.4-.1-.2-.1-.3-.1-.5s.1-.4.3-.5c.2-.2.6-.2.8-.4.1 0 .1-.1.1-.2 0-.3-.8 0-.9 0-.3 0-.6.2-.8.4z"/><path class="st7" d="M134 563.3c-1.2 1.2-2.7 1-2.7 1.1.8.3 2.3.1 3.1-1.1 1-1.4.1-3 .1-2.9.1.3.7 1.7-.5 2.9z"/><path class="st0" d="M118.6 425.3l-.3 61.3"/><ellipse transform="rotate(-47.273 118.52 486.93)" class="st8" cx="118.5" cy="486.9" rx="8.5" ry="8.5"/><path d="M112.6 481.8c-.7.7-1 1.5-1.4 2.3-.3.7-.5 1.5-.5 2.2s.3 1.5.9 2 1.8 1 2.7.5c1.2-.7.9-2 .7-2.5-.2-.4-.5-.8-.7-1.2-.2-.5-.4-1-.3-1.6s.4-1.1.9-1.5c.7-.5 1.8-.8 2.5-1.3.2-.2.5-.4.5-.7 0-.9-2.2-.1-2.7.1-.9.4-1.9 1-2.6 1.7z" opacity=".49" fill="#fff"/><path d="M124.5 491.8c-3.6 3.8-8.3 3.3-8.3 3.3 2.5.8 6.9.3 9.4-3.4 3-4.3.4-9 .4-8.9.2 1 2 5.2-1.5 9z" opacity=".37" fill="#304d78"/><path class="st0" d="M16.1 490.2l37.6-39.8M8 371.6l11.4-79.4"/><ellipse transform="rotate(-47.273 7.865 371.577)" class="st5" cx="7.9" cy="371.6" rx="6.1" ry="6.1"/><path class="st3" d="M3.7 368c-.5.5-.8 1.1-.9 1.7-.2.5-.4 1-.4 1.6s.2 1 .7 1.4 1.3.7 1.9.4c.9-.5.7-1.4.5-1.8-.1-.3-.3-.6-.5-.9-.2-.4-.3-.8-.2-1.1s.3-.8.7-1.1c.5-.4 1.2-.5 1.8-.9.2-.1.3-.3.3-.5 0-.6-1.6-.1-1.9 0-.9.4-1.6.7-2 1.2z"/><path class="st7" d="M12.1 375.1c-2.6 2.7-5.9 2.3-5.9 2.3 1.8.6 4.9.2 6.7-2.4 2.1-3.1.3-6.4.3-6.3.1.8 1.4 3.7-1.1 6.4z"/><ellipse transform="rotate(-47.273 67.792 389.595)" class="st8" cx="67.8" cy="389.6" rx="11.4" ry="11.4"/><path class="st3" d="M59.9 382.9c-.9.9-1.4 2-1.8 3.1-.4.9-.7 1.9-.7 2.9 0 .9.4 1.9 1.3 2.7.9.7 2.4 1.3 3.5.7 1.6-.9 1.3-2.7 1-3.3-.2-.6-.6-1.1-.9-1.7-.3-.7-.5-1.4-.4-2.2s.5-1.5 1.3-2c.9-.7 2.3-1 3.3-1.7.3-.2.7-.6.7-.9 0-1.1-3-.1-3.7.1-1.5.6-2.7 1.4-3.6 2.3z"/><path class="st14" d="M75.7 396.2c-4.8 5.1-11.1 4.3-11.1 4.4 3.3 1.1 9.2.4 12.6-4.5 3.9-5.8.5-12 .6-11.9.2 1.3 2.7 6.9-2.1 12z"/><ellipse transform="rotate(-47.273 19.15 291.981)" class="st15" cx="19.1" cy="292" rx="10.1" ry="10.1"/><path class="st17" d="M12.1 286.1c-.8.9-1.2 1.8-1.6 2.7-.3.9-.6 1.7-.6 2.6s.3 1.8 1.1 2.4 2.1 1.2 3.1.6c1.4-.8 1.1-2.4.9-3-.2-.5-.5-.9-.8-1.5s-.4-1.3-.3-1.9c.1-.7.5-1.3 1.1-1.8.9-.6 2.1-.9 3-1.5.3-.2.6-.5.6-.8 0-1-2.7-.1-3.3.1-1.3.5-2.4 1.2-3.2 2.1z"/><path class="st7" d="M26.2 297.8c-4.3 4.5-9.9 3.8-9.8 3.9 2.9.9 8.2.3 11.2-4 3.4-5.1.4-10.7.4-10.6.2 1.3 2.4 6.3-1.8 10.7z"/><path class="st0" d="M119.5 425.2l33.1-33.1"/><ellipse transform="rotate(-47.273 152.278 391.927)" class="st5" cx="152.3" cy="391.9" rx="4.4" ry="4.4"/><path class="st3" d="M149.3 389.3c-.3.4-.5.8-.7 1.2-.1.4-.3.8-.3 1.1 0 .4.1.8.5 1 .3.3.9.5 1.4.3.6-.3.5-1 .4-1.3l-.3-.6c-.1-.3-.2-.6-.1-.9 0-.3.2-.6.5-.8.4-.3.9-.4 1.3-.7.1-.1.2-.2.2-.3 0-.4-1.1 0-1.4 0-.7.3-1.2.6-1.5 1z"/><path class="st7" d="M155.4 394.4c-1.8 1.9-4.3 1.7-4.3 1.7 1.3.4 3.6.1 4.9-1.8 1.5-2.2.2-4.6.2-4.6 0 .6 1 2.8-.8 4.7z"/><ellipse transform="rotate(-47.273 53.4 450.191)" class="st5" cx="53.4" cy="450.2" rx="9.5" ry="9.5"/><path class="st3" d="M46.8 444.6c-.7.8-1.1 1.7-1.5 2.6-.3.8-.6 1.6-.6 2.4s.3 1.6 1 2.2 2 1.1 2.9.6c1.3-.8 1-2.2.8-2.8-.2-.5-.5-.9-.7-1.4-.3-.6-.4-1.2-.3-1.8.1-.6.5-1.2 1-1.7.8-.6 1.9-.9 2.8-1.4.3-.2.6-.5.6-.8 0-.9-2.5-.1-3.1.1-1.1.6-2.1 1.2-2.9 2z"/><path class="st7" d="M60 455.7c-4 4.2-9.3 3.6-9.2 3.6 2.7.9 7.7.3 10.5-3.7 3.3-4.8.4-10 .5-9.9.1 1.1 2.1 5.7-1.8 10z"/><ellipse transform="rotate(-47.273 118.424 425.431)" class="st15" cx="118.4" cy="425.4" rx="3.4" ry="3.4"/><path class="st17" d="M116.1 423.4c-.2.3-.4.6-.5.9s-.2.6-.2.9.1.6.4.8c.2.2.7.4 1 .2.5-.3.4-.8.3-1 0-.2-.2-.3-.2-.5-.1-.2-.1-.4-.1-.6s.1-.4.4-.6.7-.3 1-.5c.1 0 .2-.1.2-.3 0-.3-.9 0-1.1 0-.5.2-.9.4-1.2.7z"/><path class="st7" d="M120.8 427.3c-1.4 1.5-3.3 1.3-3.3 1.3.9.3 2.7.1 3.7-1.3 1.2-1.7.1-3.6.1-3.6.1.5.9 2.1-.5 3.6z"/><ellipse transform="rotate(-47.273 49.387 534.5)" class="st15" cx="49.4" cy="534.5" rx="5" ry="5"/><path class="st17" d="M45.9 531.5c-.4.4-.6.9-.8 1.4-.2.4-.3.9-.3 1.3s.2.9.6 1.2c.4.3 1 .6 1.6.3.7-.4.6-1.2.4-1.5-.1-.2-.3-.5-.4-.7-.1-.3-.2-.6-.2-.9s.2-.7.6-.9c.4-.3 1-.4 1.5-.8.1-.1.3-.2.3-.4 0-.5-1.3 0-1.6 0-.7.3-1.2.6-1.7 1z"/><path class="st7" d="M52.9 537.4c-2.1 2.3-4.9 1.9-4.9 1.9 1.5.5 4.1.2 5.6-2 1.8-2.6.2-5.3.2-5.3.2.7 1.3 3.2-.9 5.4z"/><ellipse transform="rotate(-47.273 60.275 124.74)" class="st8" cx="60.3" cy="124.7" rx="5.4" ry="5.4"/><path class="st3" d="M56.6 121.6c-.4.4-.7.9-.9 1.5-.2.5-.3.9-.3 1.4s.2.9.6 1.2c.4.3 1.1.6 1.7.3.8-.4.6-1.2.5-1.6-.1-.3-.3-.5-.4-.8-.1-.3-.2-.7-.2-1s.2-.7.6-.9c.5-.3 1.1-.5 1.6-.8.1-.1.3-.2.3-.4 0-.5-1.4-.1-1.8 0-.7.3-1.3.6-1.7 1.1z"/><path class="st14" d="M64.1 127.9c-2.3 2.4-5.3 2-5.3 2 1.6.5 4.4.2 6-2.1 1.9-2.7.2-5.7.3-5.6.1.6 1.2 3.2-1 5.7z"/><ellipse transform="rotate(-47.273 24.75 82.8)" class="st15" cx="24.8" cy="82.8" rx="7.1" ry="7.1"/><path class="st24" d="M19.7 78.6c-.5.6-.9 1.3-1.1 1.9-.2.6-.4 1.2-.4 1.8s.2 1.2.8 1.7c.5.4 1.5.8 2.2.4 1-.6.8-1.7.6-2.1-.1-.3-.4-.7-.6-1-.2-.4-.3-.9-.2-1.3s.3-.9.8-1.2c.6-.4 1.5-.6 2.1-1 .2-.1.4-.3.4-.6 0-.7-1.8-.1-2.3 0-.9.3-1.7.8-2.3 1.4z"/><path class="st7" d="M29.6 86.9c-3 3.2-7 2.7-6.9 2.7 2 .7 5.8.2 7.9-2.8 2.5-3.6.3-7.5.3-7.5.1.9 1.7 4.4-1.3 7.6z"/><ellipse transform="rotate(-47.273 113.83 358.876)" class="st15" cx="113.8" cy="358.9" rx="5" ry="5"/><path class="st24" d="M110.3 355.8c-.4.4-.6.9-.8 1.4-.2.4-.3.9-.3 1.3s.2.9.6 1.2 1 .6 1.6.3c.7-.4.6-1.2.4-1.5-.1-.2-.3-.5-.4-.7-.1-.3-.2-.6-.2-.9s.2-.7.6-.9c.4-.3 1-.4 1.5-.8.1-.1.3-.2.3-.4 0-.5-1.3 0-1.6 0-.8.3-1.3.6-1.7 1z"/><path class="st7" d="M117.3 361.7c-2.1 2.3-4.9 1.9-4.9 1.9 1.5.5 4.1.2 5.6-2 1.8-2.6.2-5.3.2-5.3.1.7 1.2 3.2-.9 5.4z"/><ellipse transform="rotate(-47.273 10.9 162.938)" class="st5" cx="10.9" cy="162.9" rx="8.5" ry="8.5"/><path class="st3" d="M5 157.9c-.7.7-1 1.5-1.4 2.3-.3.7-.5 1.5-.5 2.2s.3 1.5.9 2c.7.5 1.8 1 2.7.5 1.2-.7.9-2 .7-2.5-.2-.4-.5-.8-.7-1.2-.2-.5-.4-1-.3-1.6s.4-1.1.9-1.5c.7-.5 1.8-.8 2.5-1.3.2-.2.5-.4.5-.7 0-.9-2.2-.1-2.7.1-1 .4-1.9 1-2.6 1.7z"/><path class="st7" d="M16.8 167.9c-3.6 3.8-8.3 3.3-8.3 3.3 2.5.8 6.9.3 9.4-3.4 3-4.3.4-9 .4-8.9.2 1 2.1 5.1-1.5 9z"/><ellipse transform="rotate(-47.273 57.733 183.1)" class="st1" cx="57.7" cy="183.1" rx="2.6" ry="2.6"/><path class="st3" d="M55.9 181.6c-.2.2-.3.5-.4.7s-.1.4-.1.7.1.4.3.6.6.3.8.1c.4-.2.3-.6.2-.8 0-.1-.1-.2-.2-.4-.1-.1-.1-.3-.1-.5s.1-.3.3-.5c.2-.1.5-.2.8-.4.1 0 .1-.1.1-.2 0-.2-.7 0-.9 0-.3.2-.6.4-.8.7z"/><path class="st4" d="M59.5 184.6c-1.1 1.1-2.6 1-2.5 1 .8.2 2.1.1 2.9-1 .9-1.3.1-2.7.1-2.7 0 .2.6 1.5-.5 2.7z"/><ellipse transform="rotate(-47.273 15.6 33.87)" class="st1" cx="15.6" cy="33.9" rx="2.9" ry="2.9"/><path class="st24" d="M13.5 32.2c-.2.2-.3.5-.5.8-.1.2-.2.5-.2.7s.1.5.3.7.6.3.9.2c.4-.2.3-.7.2-.9 0-.1-.1-.3-.2-.4 0-.3-.1-.4 0-.6 0-.1.1-.4.3-.5.2-.2.6-.2.9-.4.1 0 .2-.1.1-.2 0-.3-.8 0-.9 0l-.9.6z"/><path class="st4" d="M17.5 35.5c-1.2 1.3-2.8 1.1-2.8 1.1.8.3 2.3.1 3.2-1.1 1-1.5.1-3 .1-3 .1.4.7 1.7-.5 3z"/><ellipse transform="rotate(-47.273 154.098 328.762)" class="st1" cx="154.1" cy="328.8" rx="1.9" ry="1.9"/><path d="M152.7 327.7c-.1.1-.2.3-.3.5 0 .1-.1.3-.1.5 0 .1 0 .3.2.4.1.1.4.2.6.1.3-.1.2-.4.1-.6 0-.1-.1-.2-.1-.3 0-.1-.1-.2 0-.4 0-.1.1-.2.2-.3.1-.1.4-.2.6-.3l.1-.1c0-.2-.5 0-.6 0-.3.1-.5.3-.7.5z" opacity=".49" fill="#f4ca71"/><path class="st30" d="M155.4 329.8c-.8.9-1.8.7-1.8.7.6.2 1.6 0 2.1-.8.7-.9.1-2 .1-2 0 .4.4 1.3-.4 2.1z"/><ellipse transform="rotate(-47.273 147.907 278.375)" class="st8" cx="147.9" cy="278.4" rx="3" ry="3"/><path class="st3" d="M145.8 276.6c-.2.2-.4.5-.5.8-.1.2-.2.5-.2.8s.1.5.3.7.6.3.9.2c.4-.2.3-.7.2-.9 0-.1-.1-.3-.2-.4-.1-.2-.1-.4-.1-.6s.1-.4.3-.5c.2-.2.6-.3.9-.4.1 0 .2-.1.2-.2 0-.3-.8 0-.9 0-.3 0-.6.3-.9.5z"/><path class="st14" d="M149.9 280.1c-1.2 1.3-2.9 1.1-2.9 1.1.9.3 2.4.1 3.3-1.2 1-1.5.1-3.1.1-3.1.2.4.8 1.8-.5 3.2z"/><ellipse transform="rotate(-47.273 45.29 342.236)" class="st1" cx="45.3" cy="342.2" rx="6.8" ry="6.8"/><path class="st3" d="M40.6 338.2c-.5.6-.9 1.2-1.1 1.8-.2.6-.4 1.1-.4 1.8 0 .6.2 1.2.8 1.6.5.4 1.4.8 2.1.4.9-.5.8-1.6.6-2-.1-.3-.4-.7-.5-1-.2-.4-.3-.9-.2-1.3s.3-.9.8-1.2c.6-.4 1.4-.6 2-1 .2-.1.4-.3.4-.5 0-.7-1.8-.1-2.2 0-1 .3-1.7.8-2.3 1.4z"/><path class="st30" d="M50.1 346.1c-2.8 3-6.7 2.6-6.6 2.6 1.9.7 5.5.2 7.5-2.7 2.4-3.5.3-7.2.3-7.1.1.8 1.6 4.2-1.2 7.2z"/><path class="st0" d="M108.9 154.8l-6.2 30.8"/><ellipse transform="rotate(-47.273 108.878 154.77)" class="st5" cx="108.9" cy="154.8" rx="3.6" ry="3.6"/><path class="st3" d="M106.4 152.7c-.3.3-.4.6-.6.9-.1.3-.2.6-.2.9 0 .3.1.6.4.8s.8.4 1.1.2c.5-.3.4-.8.3-1s-.2-.3-.3-.5c-.1-.2-.1-.4-.1-.7 0-.2.2-.5.4-.6.3-.2.7-.3 1-.5.1-.1.2-.2.2-.3 0-.3-.9 0-1.1 0-.4.2-.8.5-1.1.8z"/><path class="st30" d="M111.3 156.8c-1.5 1.6-3.5 1.4-3.5 1.4 1 .3 2.9.1 3.9-1.4 1.2-1.8.2-3.8.2-3.7.1.4.9 2.2-.6 3.7z"/><ellipse transform="rotate(-47.273 47.812 76.956)" class="st5" cx="47.8" cy="77" rx="2.9" ry="2.9"/><path class="st3" d="M45.7 75.3c-.2.2-.3.5-.5.8-.1.2-.2.5-.2.7s.1.5.3.7.6.3.9.2c.4-.2.3-.7.2-.9 0-.1-.1-.3-.2-.4-.1-.2-.1-.4-.1-.5 0-.2.1-.4.3-.5.2-.2.6-.2.9-.4.1 0 .2-.1.1-.2 0-.3-.8 0-.9 0-.2 0-.6.2-.8.5z"/><path class="st7" d="M49.7 78.6c-1.2 1.3-2.8 1.1-2.8 1.1.8.3 2.3.1 3.2-1.1 1-1.5.1-3 .1-3 .1.3.7 1.7-.5 3z"/><ellipse transform="rotate(-47.273 102.689 184.873)" class="st1" cx="102.7" cy="184.9" rx="2.9" ry="2.9"/><path class="st3" d="M100.6 183.2c-.2.2-.3.5-.5.8-.1.2-.2.5-.2.7s.1.5.3.7c.2.2.6.3.9.2.4-.2.3-.7.2-.9 0-.1-.1-.3-.2-.4-.1-.2-.1-.4-.1-.5 0-.2.1-.4.3-.5.2-.2.6-.2.9-.4.1 0 .2-.1.1-.2 0-.3-.8 0-.9 0-.2.1-.5.3-.8.5z"/><path class="st4" d="M104.6 186.5c-1.2 1.3-2.8 1.1-2.8 1.1.8.3 2.3.1 3.2-1.1 1-1.5.1-3 .1-3 .1.4.7 1.7-.5 3z"/><ellipse transform="rotate(-47.273 148.87 527.6)" class="st1" cx="148.9" cy="527.6" rx="2.6" ry="2.6"/><path class="st3" d="M147.1 526.1c-.2.2-.3.5-.4.7-.1.2-.1.4-.1.7s.1.4.3.6c.2.2.6.3.8.1.4-.2.3-.6.2-.8 0-.1-.1-.2-.2-.4-.1-.1-.1-.3-.1-.5s.1-.3.3-.5c.2-.1.5-.2.8-.4.1 0 .1-.1.1-.2 0-.2-.7 0-.9 0-.3.2-.6.4-.8.7z"/><path class="st4" d="M150.7 529.1c-1.1 1.1-2.6 1-2.5 1 .8.2 2.1.1 2.9-1 .9-1.3.1-2.7.1-2.7 0 .2.6 1.5-.5 2.7z"/><path class="st0" d="M68.9 674.3l-47.6 27.6m3.2-86.9l-3.2 86.9M67 234.6l-46.4-3.1"/><ellipse transform="rotate(-47.273 67.769 235.22)" class="st8" cx="67.8" cy="235.2" rx="3.6" ry="3.6"/><path class="st3" d="M65.2 233.1c-.3.3-.4.6-.6.9-.1.3-.2.6-.2.9 0 .3.1.6.4.8s.8.4 1.1.2c.5-.3.4-.8.3-1s-.2-.3-.3-.5-.1-.4-.1-.7c0-.2.2-.5.4-.6.3-.2.7-.3 1-.5.1-.1.2-.2.2-.3 0-.3-.9 0-1.1 0-.4.2-.8.5-1.1.8z"/><path class="st14" d="M70.2 237.2c-1.5 1.6-3.5 1.4-3.5 1.4 1 .3 2.9.1 3.9-1.4 1.2-1.8.2-3.8.2-3.7.1.4.8 2.1-.6 3.7z"/><ellipse transform="rotate(-47.273 21.968 231.7)" class="st1" cx="22" cy="231.7" rx="2.9" ry="2.9"/><path class="st3" d="M19.9 230c-.2.2-.3.5-.5.8-.1.2-.2.5-.2.7s.1.5.3.7c.2.2.6.3.9.2.4-.2.3-.7.2-.9 0-.1-.1-.3-.2-.4-.1-.2-.1-.4-.1-.5 0-.2.1-.4.3-.5.2-.2.6-.2.9-.4.1 0 .2-.1.1-.2 0-.3-.8 0-.9 0-.2.1-.5.3-.8.5z"/><path class="st4" d="M23.9 233.3c-1.2 1.3-2.8 1.1-2.8 1.1.8.3 2.3.1 3.2-1.1 1-1.5.1-3 .1-3 .1.4.7 1.7-.5 3z"/><path class="st0" d="M-.5 249L20 233.8"/><ellipse transform="rotate(-47.273 87.592 571.5)" class="st5" cx="87.6" cy="571.5" rx="4.4" ry="4.4"/><path class="st3" d="M84.6 568.9c-.3.4-.5.8-.7 1.2-.1.4-.3.8-.3 1.1 0 .4.1.8.5 1 .3.3.9.5 1.4.3.6-.3.5-1 .4-1.3l-.3-.6c-.1-.3-.2-.6-.1-.9 0-.3.2-.6.5-.8.4-.3.9-.4 1.3-.7.1-.1.2-.2.2-.3 0-.4-1.1 0-1.4 0-.7.3-1.2.6-1.5 1z"/><path class="st7" d="M90.7 574c-1.8 1.9-4.3 1.7-4.3 1.7 1.3.4 3.6.1 4.9-1.8 1.5-2.2.2-4.6.2-4.6 0 .6 1 2.8-.8 4.7z"/><ellipse transform="rotate(-47.273 105.2 695.447)" class="st15" cx="105.2" cy="695.4" rx="3.4" ry="3.4"/><path class="st17" d="M102.9 693.4c-.2.3-.4.6-.5.9s-.2.6-.2.9.1.6.4.8c.2.2.7.4 1 .2.5-.3.4-.8.3-1 0-.2-.2-.3-.2-.5-.1-.2-.1-.4-.1-.6s.1-.4.4-.6.7-.3 1-.5c.1 0 .2-.1.2-.3 0-.3-.9 0-1.1 0-.5.2-.9.4-1.2.7z"/><path class="st7" d="M107.6 697.3c-1.4 1.5-3.3 1.3-3.3 1.3.9.3 2.7.1 3.7-1.3 1.2-1.7.1-3.6.1-3.6.1.5.9 2.1-.5 3.6z"/><path class="st0" d="M15.6 490.6L0 533m-.1 128.3l21.4 40.6"/><ellipse transform="rotate(-47.273 21.296 701.913)" class="st1" cx="21.3" cy="701.9" rx="6.8" ry="6.8"/><path class="st3" d="M16.6 697.9c-.5.6-.9 1.2-1.1 1.8-.2.6-.4 1.1-.4 1.8 0 .6.2 1.2.8 1.6.5.4 1.4.8 2.1.4.9-.5.8-1.6.6-2-.1-.3-.4-.7-.5-1-.2-.4-.3-.9-.2-1.3.1-.4.3-.9.8-1.2.6-.4 1.4-.6 2-1 .2-.1.4-.3.4-.5 0-.7-1.8-.1-2.2 0-1 .3-1.7.8-2.3 1.4z"/><path class="st30" d="M26.1 705.8c-2.8 3-6.7 2.6-6.6 2.6 1.9.7 5.5.2 7.5-2.7 2.4-3.5.3-7.2.3-7.1.1.8 1.6 4.2-1.2 7.2z"/><path class="st0" d="M0 553l24.5 62"/><ellipse transform="rotate(-47.273 15.782 490)" class="st1" cx="15.8" cy="490" rx="10" ry="10"/><path class="st3" d="M8.8 484.1c-.8.8-1.2 1.8-1.6 2.7-.3.9-.6 1.7-.6 2.6s.3 1.7 1.1 2.3c.8.6 2.1 1.1 3.1.6 1.4-.8 1.1-2.3.9-2.9-.2-.5-.5-.9-.8-1.4-.3-.6-.4-1.2-.3-1.9.1-.7.5-1.3 1.1-1.8.9-.6 2-.9 2.9-1.5.3-.2.6-.5.6-.8 0-1-2.6-.1-3.2.1-1.3.5-2.4 1.2-3.2 2z"/><path class="st4" d="M22.7 495.7c-4.2 4.4-9.8 3.8-9.7 3.8 2.9.9 8.1.3 11-3.9 3.5-5.1.5-10.6.5-10.5.2 1.3 2.4 6.2-1.8 10.6z"/><ellipse transform="rotate(-47.273 68.873 674.263)" class="st5" cx="68.9" cy="674.3" rx="6.1" ry="6.1"/><path class="st3" d="M64.7 670.7c-.5.5-.8 1.1-.9 1.7-.2.5-.4 1-.4 1.6 0 .6.2 1 .7 1.4.5.4 1.3.7 1.9.4.9-.5.7-1.4.5-1.8-.1-.3-.3-.6-.5-.9-.2-.4-.3-.8-.2-1.1.1-.3.3-.8.7-1.1.5-.4 1.2-.5 1.8-.9.2-.1.3-.3.3-.5 0-.6-1.6-.1-1.9 0-.9.4-1.6.7-2 1.2z"/><path class="st7" d="M73.1 677.8c-2.6 2.7-5.9 2.3-5.9 2.3 1.8.6 4.9.2 6.7-2.4 2.1-3.1.3-6.4.3-6.3.1.8 1.4 3.7-1.1 6.4z"/><ellipse transform="rotate(-47.273 25.56 614.973)" class="st15" cx="25.6" cy="615" rx="7.1" ry="7.1"/><path class="st24" d="M20.6 610.8c-.5.6-.9 1.3-1.1 1.9-.2.6-.4 1.2-.4 1.8 0 .6.2 1.2.8 1.7.5.4 1.5.8 2.2.4 1-.6.8-1.7.6-2.1-.1-.3-.4-.7-.6-1-.2-.4-.3-.9-.2-1.3s.3-.9.8-1.2c.6-.4 1.5-.6 2.1-1 .2-.1.4-.3.4-.6 0-.7-1.8-.1-2.3 0-.9.3-1.7.8-2.3 1.4z"/><path class="st7" d="M30.5 619.1c-3 3.2-7 2.7-6.9 2.7 2 .7 5.8.2 7.9-2.8 2.5-3.6.3-7.5.3-7.5.1.9 1.7 4.4-1.3 7.6z"/><path class="st0" d="M75 750.6l-42.2 2.8"/><ellipse transform="rotate(-47.273 75.58 750.572)" class="st5" cx="75.6" cy="750.6" rx="2.8" ry="2.8"/><path class="st3" d="M73.7 748.9c-.2.2-.3.5-.4.8-.1.2-.2.5-.2.7s.1.5.3.7.6.3.9.2c.4-.2.3-.7.2-.8 0-.1-.1-.3-.2-.4-.1-.2-.1-.3-.1-.5s.1-.4.3-.5c.2-.2.6-.2.8-.4.1 0 .1-.1.1-.2 0-.3-.8 0-.9 0-.3 0-.6.2-.8.4z"/><path class="st7" d="M77.5 752.2c-1.2 1.2-2.7 1-2.7 1.1.8.3 2.3.1 3.1-1.1 1-1.4.1-3 .1-2.9.1.3.7 1.7-.5 2.9z"/><path class="st0" d="M32.8 753.4L.8 799"/><ellipse transform="rotate(-47.273 32.633 753.372)" class="st1" cx="32.6" cy="753.4" rx="2.6" ry="2.6"/><path class="st3" d="M30.8 751.9c-.2.2-.3.5-.4.7s-.1.4-.1.7.1.4.3.6.6.3.8.1c.4-.2.3-.6.2-.8 0-.1-.1-.2-.2-.4-.1-.1-.1-.3-.1-.5s.1-.3.3-.5c.2-.1.5-.2.8-.4.1 0 .1-.1.1-.2 0-.2-.7 0-.9 0-.3.2-.6.4-.8.7z"/><path class="st4" d="M34.4 754.9c-1.1 1.1-2.6 1-2.5 1 .8.2 2.1.1 2.9-1 .9-1.3.1-2.7.1-2.7 0 .2.6 1.5-.5 2.7z"/></svg>