<svg version="1.1" id="Layer_1" xmlns="http://www.w3.org/2000/svg" x="0" y="0" viewBox="0 0 261 505" xml:space="preserve"><style>.st0{fill:#002075}.st1{fill:#304d78}</style><path class="st0" d="M37 306.5H22l-7.5 13 7.5 13h15l7.5-13zM61.5 321h-15L39 334l7.5 13h15l7.5-13zM37 335H22l-7.5 13 7.5 13h15l7.5-13zm25-70.5H47l-7.5 13 7.5 13h15l7.5-13zM86.5 279h-15L64 292l7.5 13h15l7.5-13zm-.5 28.5H71l-7.5 13 7.5 13h15l7.5-13zm24.5 14.5h-15L88 335l7.5 13h15l7.5-13zM86 336H71l-7.5 13 7.5 13h15l7.5-13z"/><path class="st1" d="M13 263.5H-2l-7.5 13 7.5 13h15l7.5-13zM37.5 278h-15L15 291l7.5 13h15l7.5-13zM13 292H-2l-7.5 13 7.5 13h15l7.5-13z"/><path class="st0" d="M37.8 221.5h-15l-7.5 13 7.5 13h15l7.5-13zM62.3 236h-15l-7.5 13 7.5 13h15l7.5-13zm-24.5 14h-15l-7.5 13 7.5 13h15l7.5-13z"/><path class="st1" d="M86.8 222.5h-15l-7.5 13 7.5 13h15l7.5-13zm24.5 14.5h-15l-7.5 13 7.5 13h15l7.5-13zm-24.5 14h-15l-7.5 13 7.5 13h15l7.5-13z"/><path class="st0" d="M13.8 178.5H-1.3l-7.5 13 7.5 13h15.1l7.5-13zM38.3 193h-15l-7.5 13 7.5 13h15l7.5-13zm-24.5 14H-1.3l-7.5 13 7.5 13h15.1l7.5-13zm-2.6 227.5h-15l-7.5 13 7.5 13h15l7.5-13zM35.7 449h-15l-7.5 13 7.5 13h15l7.5-13z"/><path class="st1" d="M36.2 392.5h-15l-7.5 13 7.5 13h15l7.5-13zM60.7 407h-15l-7.5 13 7.5 13h15l7.5-13zm-24.5 14h-15l-7.5 13 7.5 13h15l7.5-13z"/><path class="st0" d="M61.2 349.5h-15l-7.5 13 7.5 13h15l7.5-13zM85.7 364h-15l-7.5 13 7.5 13h15l7.5-13zm-24.5 14h-15l-7.5 13 7.5 13h15l7.5-13zm-49-28.5h-15l-7.5 13 7.5 13h15l7.5-13zM36.7 364h-15l-7.5 13 7.5 13h15l7.5-13zm-24.5 14h-15l-7.5 13 7.5 13h15l7.5-13zm51-283.5h-15l-7.5 13 7.5 13h15l7.5-13zM87.7 109h-15l-7.5 13 7.5 13h15l7.5-13zm-24.5 14h-15l-7.5 13 7.5 13h15l7.5-13zM38 136.5H23l-7.5 13 7.5 13h15l7.5-13zM62.5 151h-15L40 164l7.5 13h15l7.5-13zM38 165H23l-7.5 13 7.5 13h15l7.5-13z"/><path class="st1" d="M14 93.5H-1l-7.5 13 7.5 13h15l7.5-13zM38.5 108h-15L16 121l7.5 13h15l7.5-13zM14 122H-1l-7.5 13 7.5 13h15l7.5-13z"/><path class="st0" d="M14 36.8H-1l-7.5 13L-1 62.7h15l7.5-12.9zm24.5 14.5h-15l-7.5 13 7.5 12.9h15L46 64.3zM14 65.3H-1l-7.5 12.9 7.5 13h15l7.5-13zM13.3 7H-1.8l-7.5 13 7.5 13h15.1l7.5-13zm-2.1 456h-15l-7.5 13 7.5 13h15l7.5-13zm51-284h-15l-7.5 13 7.5 13h15l7.5-13z"/></svg>