<?xml version="1.0" encoding="utf-8"?>
<!-- Generator: Adobe Illustrator 21.1.0, SVG Export Plug-In . SVG Version: 6.00 Build 0)  -->
<svg version="1.1" id="Layer_1" xmlns="http://www.w3.org/2000/svg" xmlns:xlink="http://www.w3.org/1999/xlink" x="0px" y="0px"
	 viewBox="0 0 261 799" style="enable-background:new 0 0 261 799;" xml:space="preserve">
<style type="text/css">
	.st0{fill:none;stroke:#37100A;stroke-width:0.4734;stroke-miterlimit:10;}
	.st1{fill:#E0B6FB;}
	.st2{fill:#12A697;stroke:#EFDEBF;stroke-width:0.1089;stroke-miterlimit:10;}
	.st3{opacity:0.49;fill:#E6EDF0;enable-background:new    ;}
	.st4{opacity:0.37;fill:#7400C7;enable-background:new    ;}
	.st5{fill:#002075;}
	.st6{fill:#E97223;stroke:#EFDEBF;stroke-width:0.1864;stroke-miterlimit:10;}
	.st7{opacity:0.37;fill:#2D2F2E;enable-background:new    ;}
	.st8{fill:#304D78;}
	.st9{fill:none;stroke:#EFDEBF;stroke-width:0.355;stroke-miterlimit:10;}
	.st10{opacity:0.49;fill:#FFFFFF;enable-background:new    ;}
	.st11{opacity:0.37;fill:#304D78;enable-background:new    ;}
	.st12{fill:none;stroke:#EFDEBF;stroke-width:0.4037;stroke-miterlimit:10;}
	.st13{fill:none;stroke:#EFDEBF;stroke-width:0.4734;stroke-miterlimit:10;}
	.st14{opacity:0.37;fill:#002075;enable-background:new    ;}
	.st15{fill:#7400C7;}
	.st16{fill:#12A697;stroke:#EFDEBF;stroke-width:0.6746;stroke-miterlimit:10;}
	.st17{opacity:0.49;fill:#E0B6FB;enable-background:new    ;}
	.st18{fill:#E97223;stroke:#EFDEBF;stroke-width:0.2928;stroke-miterlimit:10;}
	.st19{fill:#E97223;stroke:#EFDEBF;stroke-width:0.6311;stroke-miterlimit:10;}
	.st20{fill:none;stroke:#EFDEBF;stroke-width:0.224;stroke-miterlimit:10;}
	.st21{fill:none;stroke:#EFDEBF;stroke-width:0.3356;stroke-miterlimit:10;}
	.st22{fill:#12A697;stroke:#EFDEBF;stroke-width:0.359;stroke-miterlimit:10;}
	.st23{fill:none;stroke:#EFDEBF;stroke-width:0.2959;stroke-miterlimit:10;}
	.st24{opacity:0.49;fill:#EFDEBF;enable-background:new    ;}
	.st25{fill:#E97223;stroke:#EFDEBF;stroke-width:0.568;stroke-miterlimit:10;}
	.st26{fill:none;stroke:#EFDEBF;stroke-width:0.1726;stroke-miterlimit:10;}
	.st27{fill:none;stroke:#EFDEBF;stroke-width:0.191;stroke-miterlimit:10;}
	.st28{fill:#E97223;stroke:#EFDEBF;stroke-width:0.1262;stroke-miterlimit:10;}
	.st29{opacity:0.49;fill:#F4CA71;enable-background:new    ;}
	.st30{opacity:0.37;fill:#37100A;enable-background:new    ;}
	.st31{fill:none;stroke:#EFDEBF;stroke-width:0.198;stroke-miterlimit:10;}
	.st32{fill:#E97223;stroke:#EFDEBF;stroke-width:0.4532;stroke-miterlimit:10;}
	.st33{fill:#E97223;stroke:#EFDEBF;stroke-width:0.2367;stroke-miterlimit:10;}
	.st34{fill:#12A697;stroke:#EFDEBF;stroke-width:0.6647;stroke-miterlimit:10;}
</style>
<line class="st0" x1="21.3" y1="701.9" x2="32.8" y2="753.4"/>
<line class="st0" x1="68.7" y1="674.3" x2="103.7" y2="694.7"/>
<line class="st0" x1="24.5" y1="615" x2="68.9" y2="674.3"/>
<line class="st0" x1="48.8" y1="534.5" x2="24.5" y2="615"/>
<line class="st0" x1="22.1" y1="232.7" x2="19.4" y2="292.1"/>
<line class="st0" x1="21.3" y1="701.9" x2="-0.2" y2="742.1"/>
<line class="st0" x1="129.8" y1="562.4" x2="88.1" y2="570.8"/>
<line class="st0" x1="16.9" y1="490.4" x2="48.8" y2="534.5"/>
<line class="st0" x1="119.1" y1="487.3" x2="147.9" y2="526"/>
<line class="st0" x1="15.6" y1="34.1" x2="-0.5" y2="0"/>
<line class="st0" x1="108.9" y1="154.8" x2="60.6" y2="125"/>
<line class="st0" x1="47.8" y1="77.2" x2="60.6" y2="125"/>
<line class="st0" x1="10.1" y1="162.9" x2="57.7" y2="183.1"/>
<line class="st0" x1="118.3" y1="486.6" x2="54.4" y2="450.2"/>
<line class="st0" x1="111.7" y1="358.3" x2="45.4" y2="342.3"/>
<line class="st0" x1="68.1" y1="389.6" x2="45.4" y2="342.3"/>
<line class="st0" x1="45.4" y1="342.3" x2="18" y2="292.5"/>
<line class="st0" x1="45.4" y1="342.3" x2="7.1" y2="371.1"/>
<line class="st0" x1="148.1" y1="278.3" x2="153.8" y2="328.5"/>
<line class="st0" x1="153.8" y1="328.5" x2="113.6" y2="358.8"/>
<line class="st0" x1="48.8" y1="534.5" x2="87.6" y2="571.5"/>
<line class="st0" x1="24.3" y1="82.8" x2="15.6" y2="34.6"/>
<line class="st0" x1="-0.5" y1="105.6" x2="24.3" y2="82.8"/>
<line class="st0" x1="19.4" y1="292.1" x2="0" y2="265.1"/>
<line class="st0" x1="-0.5" y1="461" x2="16.6" y2="489.5"/>
<line class="st0" x1="7.6" y1="371.6" x2="51.6" y2="451.1"/>
<line class="st0" x1="10.9" y1="165.1" x2="22.4" y2="230.3"/>
<line class="st0" x1="57.7" y1="183.1" x2="67" y2="234.6"/>
<line class="st0" x1="24.3" y1="82.8" x2="10.1" y2="162.9"/>
<line class="st0" x1="68" y1="388.4" x2="53.5" y2="450.2"/>
<line class="st0" x1="60.6" y1="125.9" x2="10.1" y2="162.9"/>
<line class="st0" x1="17.3" y1="292.3" x2="67" y2="234.6"/>
<line class="st0" x1="67.7" y1="392" x2="118.8" y2="425.1"/>
<line class="st0" x1="113.6" y1="358.8" x2="68.1" y2="389.6"/>
<line class="st0" x1="118.3" y1="486.6" x2="48.8" y2="534.5"/>
<line class="st0" x1="152.6" y1="392.1" x2="199.7" y2="407.1"/>
<line class="st0" x1="8.1" y1="372.5" x2="68.1" y2="389.8"/>
<g>
	
		<ellipse transform="matrix(0.6785 -0.7346 0.7346 0.6785 -234.9257 277.6363)" class="st1" cx="199.7" cy="407.2" rx="1.7" ry="1.7"/>
	<path class="st2" d="M199.2,406.2"/>
	<path class="st3" d="M198.6,406.2c-0.1,0.1-0.2,0.3-0.3,0.4c0,0.1-0.1,0.3-0.1,0.4s0,0.3,0.2,0.4c0.1,0.1,0.3,0.2,0.5,0.1
		s0.2-0.4,0.1-0.5c0-0.1-0.1-0.1-0.1-0.2s-0.1-0.2,0-0.3c0-0.1,0.1-0.2,0.2-0.3c0.1-0.1,0.3-0.1,0.5-0.2l0.1-0.1c0-0.1-0.4,0-0.5,0
		C198.9,406,198.7,406.1,198.6,406.2z"/>
	<path class="st4" d="M200.9,408.1c-0.7,0.7-1.6,0.6-1.6,0.6c0.5,0.1,1.3,0,1.8-0.7c0.6-0.8,0.1-1.8,0.1-1.7
		C201.2,406.6,201.5,407.4,200.9,408.1z"/>
</g>
<g>
	
		<ellipse transform="matrix(0.6785 -0.7346 0.7346 0.6785 -370.1342 277.6335)" class="st5" cx="132.1" cy="561.7" rx="2.8" ry="2.8"/>
	<path class="st6" d="M131.2,559.9"/>
	<path class="st3" d="M130.2,560c-0.2,0.2-0.3,0.5-0.4,0.8c-0.1,0.2-0.2,0.5-0.2,0.7s0.1,0.5,0.3,0.7s0.6,0.3,0.9,0.2
		c0.4-0.2,0.3-0.7,0.2-0.8c0-0.1-0.1-0.3-0.2-0.4c-0.1-0.2-0.1-0.3-0.1-0.5s0.1-0.4,0.3-0.5c0.2-0.2,0.6-0.2,0.8-0.4
		c0.1,0,0.1-0.1,0.1-0.2c0-0.3-0.8,0-0.9,0C130.7,559.6,130.4,559.8,130.2,560z"/>
	<path class="st7" d="M134,563.3c-1.2,1.2-2.7,1-2.7,1.1c0.8,0.3,2.3,0.1,3.1-1.1c1-1.4,0.1-3,0.1-2.9
		C134.6,560.7,135.2,562.1,134,563.3z"/>
</g>
<line class="st0" x1="118.6" y1="425.3" x2="118.3" y2="486.6"/>
<g>
	
		<ellipse transform="matrix(0.6785 -0.7346 0.7346 0.6785 -319.5952 243.613)" class="st8" cx="118.5" cy="486.9" rx="8.5" ry="8.5"/>
	<path class="st9" d="M117.4,483.5"/>
	<path class="st10" d="M112.6,481.8c-0.7,0.7-1,1.5-1.4,2.3c-0.3,0.7-0.5,1.5-0.5,2.2s0.3,1.5,0.9,2s1.8,1,2.7,0.5
		c1.2-0.7,0.9-2,0.7-2.5c-0.2-0.4-0.5-0.8-0.7-1.2c-0.2-0.5-0.4-1-0.3-1.6s0.4-1.1,0.9-1.5c0.7-0.5,1.8-0.8,2.5-1.3
		c0.2-0.2,0.5-0.4,0.5-0.7c0-0.9-2.2-0.1-2.7,0.1C114.3,480.5,113.3,481.1,112.6,481.8z"/>
	<path class="st11" d="M124.5,491.8c-3.6,3.8-8.3,3.3-8.3,3.3c2.5,0.8,6.9,0.3,9.4-3.4c3-4.3,0.4-9,0.4-8.9
		C126.2,483.8,128,488,124.5,491.8z"/>
</g>
<line class="st0" x1="16.1" y1="490.2" x2="53.7" y2="450.4"/>
<line class="st0" x1="8" y1="371.6" x2="19.4" y2="292.2"/>
<g>
	
		<ellipse transform="matrix(0.6785 -0.7346 0.7346 0.6785 -270.4318 125.2399)" class="st5" cx="7.9" cy="371.6" rx="6.1" ry="6.1"/>
	<path class="st12" d="M5.8,367.9"/>
	<path class="st3" d="M3.7,368c-0.5,0.5-0.8,1.1-0.9,1.7c-0.2,0.5-0.4,1-0.4,1.6s0.2,1,0.7,1.4s1.3,0.7,1.9,0.4
		c0.9-0.5,0.7-1.4,0.5-1.8c-0.1-0.3-0.3-0.6-0.5-0.9c-0.2-0.4-0.3-0.8-0.2-1.1s0.3-0.8,0.7-1.1c0.5-0.4,1.2-0.5,1.8-0.9
		c0.2-0.1,0.3-0.3,0.3-0.5c0-0.6-1.6-0.1-1.9,0C4.8,367.2,4.1,367.5,3.7,368z"/>
	<path class="st7" d="M12.1,375.1c-2.6,2.7-5.9,2.3-5.9,2.3c1.8,0.6,4.9,0.2,6.7-2.4c2.1-3.1,0.3-6.4,0.3-6.3
		C13.3,369.5,14.6,372.4,12.1,375.1z"/>
</g>
<g>
	
		<ellipse transform="matrix(0.6785 -0.7346 0.7346 0.6785 -264.4012 175.0543)" class="st8" cx="67.8" cy="389.6" rx="11.4" ry="11.4"/>
	<path class="st13" d="M66.3,385.1"/>
	<path class="st3" d="M59.9,382.9c-0.9,0.9-1.4,2-1.8,3.1c-0.4,0.9-0.7,1.9-0.7,2.9c0,0.9,0.4,1.9,1.3,2.7c0.9,0.7,2.4,1.3,3.5,0.7
		c1.6-0.9,1.3-2.7,1-3.3c-0.2-0.6-0.6-1.1-0.9-1.7c-0.3-0.7-0.5-1.4-0.4-2.2s0.5-1.5,1.3-2c0.9-0.7,2.3-1,3.3-1.7
		c0.3-0.2,0.7-0.6,0.7-0.9c0-1.1-3-0.1-3.7,0.1C62,381.2,60.8,382,59.9,382.9z"/>
	<path class="st14" d="M75.7,396.2c-4.8,5.1-11.1,4.3-11.1,4.4c3.3,1.1,9.2,0.4,12.6-4.5c3.9-5.8,0.5-12,0.6-11.9
		C78,385.5,80.5,391.1,75.7,396.2z"/>
</g>
<g>
	
		<ellipse transform="matrix(0.6785 -0.7346 0.7346 0.6785 -208.3328 107.9395)" class="st15" cx="19.1" cy="292" rx="10.1" ry="10.1"/>
	<path class="st16" d="M15.7,285.8"/>
	<path class="st17" d="M12.1,286.1c-0.8,0.9-1.2,1.8-1.6,2.7c-0.3,0.9-0.6,1.7-0.6,2.6s0.3,1.8,1.1,2.4s2.1,1.2,3.1,0.6
		c1.4-0.8,1.1-2.4,0.9-3c-0.2-0.5-0.5-0.9-0.8-1.5s-0.4-1.3-0.3-1.9c0.1-0.7,0.5-1.3,1.1-1.8c0.9-0.6,2.1-0.9,3-1.5
		c0.3-0.2,0.6-0.5,0.6-0.8c0-1-2.7-0.1-3.3,0.1C14,284.5,12.9,285.2,12.1,286.1z"/>
	<path class="st7" d="M26.2,297.8c-4.3,4.5-9.9,3.8-9.8,3.9c2.9,0.9,8.2,0.3,11.2-4C31,292.6,28,287,28,287.1
		C28.2,288.4,30.4,293.4,26.2,297.8z"/>
</g>
<line class="st0" x1="119.5" y1="425.2" x2="152.6" y2="392.1"/>
<g>
	
		<ellipse transform="matrix(0.6785 -0.7346 0.7346 0.6785 -238.9526 237.8678)" class="st5" cx="152.3" cy="391.9" rx="4.4" ry="4.4"/>
	<path class="st18" d="M150.8,389.2"/>
	<path class="st3" d="M149.3,389.3c-0.3,0.4-0.5,0.8-0.7,1.2c-0.1,0.4-0.3,0.8-0.3,1.1c0,0.4,0.1,0.8,0.5,1c0.3,0.3,0.9,0.5,1.4,0.3
		c0.6-0.3,0.5-1,0.4-1.3c-0.1-0.2-0.2-0.4-0.3-0.6c-0.1-0.3-0.2-0.6-0.1-0.9c0-0.3,0.2-0.6,0.5-0.8c0.4-0.3,0.9-0.4,1.3-0.7
		c0.1-0.1,0.2-0.2,0.2-0.3c0-0.4-1.1,0-1.4,0C150.1,388.6,149.6,388.9,149.3,389.3z"/>
	<path class="st7" d="M155.4,394.4c-1.8,1.9-4.3,1.7-4.3,1.7c1.3,0.4,3.6,0.1,4.9-1.8c1.5-2.2,0.2-4.6,0.2-4.6
		C156.2,390.3,157.2,392.5,155.4,394.4z"/>
</g>
<g>
	
		<ellipse transform="matrix(0.6785 -0.7346 0.7346 0.6785 -313.5425 183.9638)" class="st5" cx="53.4" cy="450.2" rx="9.5" ry="9.5"/>
	<path class="st19" d="M50.2,444.4"/>
	<path class="st3" d="M46.8,444.6c-0.7,0.8-1.1,1.7-1.5,2.6c-0.3,0.8-0.6,1.6-0.6,2.4s0.3,1.6,1,2.2s2,1.1,2.9,0.6
		c1.3-0.8,1-2.2,0.8-2.8c-0.2-0.5-0.5-0.9-0.7-1.4c-0.3-0.6-0.4-1.2-0.3-1.8c0.1-0.6,0.5-1.2,1-1.7c0.8-0.6,1.9-0.9,2.8-1.4
		c0.3-0.2,0.6-0.5,0.6-0.8c0-0.9-2.5-0.1-3.1,0.1C48.6,443.2,47.6,443.8,46.8,444.6z"/>
	<path class="st7" d="M60,455.7c-4,4.2-9.3,3.6-9.2,3.6c2.7,0.9,7.7,0.3,10.5-3.7c3.3-4.8,0.4-10,0.5-9.9
		C61.9,446.8,63.9,451.4,60,455.7z"/>
</g>
<g>
	
		<ellipse transform="matrix(0.6785 -0.7346 0.7346 0.6785 -274.4485 223.7705)" class="st15" cx="118.4" cy="425.4" rx="3.4" ry="3.4"/>
	<path class="st20" d="M117.3,423.3"/>
	<path class="st17" d="M116.1,423.4c-0.2,0.3-0.4,0.6-0.5,0.9s-0.2,0.6-0.2,0.9s0.1,0.6,0.4,0.8c0.2,0.2,0.7,0.4,1,0.2
		c0.5-0.3,0.4-0.8,0.3-1c0-0.2-0.2-0.3-0.2-0.5c-0.1-0.2-0.1-0.4-0.1-0.6s0.1-0.4,0.4-0.6s0.7-0.3,1-0.5c0.1,0,0.2-0.1,0.2-0.3
		c0-0.3-0.9,0-1.1,0C116.8,422.9,116.4,423.1,116.1,423.4z"/>
	<path class="st7" d="M120.8,427.3c-1.4,1.5-3.3,1.3-3.3,1.3c0.9,0.3,2.7,0.1,3.7-1.3c1.2-1.7,0.1-3.6,0.1-3.6
		C121.4,424.2,122.2,425.8,120.8,427.3z"/>
</g>
<g>
	<ellipse transform="matrix(0.6785 -0.7346 0.7346 0.6785 -376.7657 208.1218)" class="st15" cx="49.4" cy="534.5" rx="5" ry="5"/>
	<path class="st21" d="M47.7,531.4"/>
	<path class="st17" d="M45.9,531.5c-0.4,0.4-0.6,0.9-0.8,1.4c-0.2,0.4-0.3,0.9-0.3,1.3c0,0.4,0.2,0.9,0.6,1.2c0.4,0.3,1,0.6,1.6,0.3
		c0.7-0.4,0.6-1.2,0.4-1.5c-0.1-0.2-0.3-0.5-0.4-0.7c-0.1-0.3-0.2-0.6-0.2-0.9s0.2-0.7,0.6-0.9c0.4-0.3,1-0.4,1.5-0.8
		c0.1-0.1,0.3-0.2,0.3-0.4c0-0.5-1.3,0-1.6,0C46.9,530.8,46.4,531.1,45.9,531.5z"/>
	<path class="st7" d="M52.9,537.4c-2.1,2.3-4.9,1.9-4.9,1.9c1.5,0.5,4.1,0.2,5.6-2c1.8-2.6,0.2-5.3,0.2-5.3
		C54,532.7,55.1,535.2,52.9,537.4z"/>
</g>
<g>
	<ellipse transform="matrix(0.6785 -0.7346 0.7346 0.6785 -72.2558 84.3822)" class="st8" cx="60.3" cy="124.7" rx="5.4" ry="5.4"/>
	<path class="st22" d="M58.5,121.4"/>
	<path class="st3" d="M56.6,121.6c-0.4,0.4-0.7,0.9-0.9,1.5c-0.2,0.5-0.3,0.9-0.3,1.4s0.2,0.9,0.6,1.2c0.4,0.3,1.1,0.6,1.7,0.3
		c0.8-0.4,0.6-1.2,0.5-1.6c-0.1-0.3-0.3-0.5-0.4-0.8c-0.1-0.3-0.2-0.7-0.2-1s0.2-0.7,0.6-0.9c0.5-0.3,1.1-0.5,1.6-0.8
		c0.1-0.1,0.3-0.2,0.3-0.4c0-0.5-1.4-0.1-1.8,0C57.6,120.8,57,121.1,56.6,121.6z"/>
	<path class="st14" d="M64.1,127.9c-2.3,2.4-5.3,2-5.3,2c1.6,0.5,4.4,0.2,6-2.1c1.9-2.7,0.2-5.7,0.3-5.6
		C65.2,122.8,66.3,125.4,64.1,127.9z"/>
</g>
<g>
	<ellipse transform="matrix(0.6785 -0.7346 0.7346 0.6785 -52.8676 44.802)" class="st15" cx="24.8" cy="82.8" rx="7.1" ry="7.1"/>
	<path class="st23" d="M23.7,80"/>
	<path class="st24" d="M19.7,78.6c-0.5,0.6-0.9,1.3-1.1,1.9c-0.2,0.6-0.4,1.2-0.4,1.8s0.2,1.2,0.8,1.7c0.5,0.4,1.5,0.8,2.2,0.4
		c1-0.6,0.8-1.7,0.6-2.1c-0.1-0.3-0.4-0.7-0.6-1C21,80.9,20.9,80.4,21,80s0.3-0.9,0.8-1.2c0.6-0.4,1.5-0.6,2.1-1
		c0.2-0.1,0.4-0.3,0.4-0.6c0-0.7-1.8-0.1-2.3,0C21.1,77.5,20.3,78,19.7,78.6z"/>
	<path class="st7" d="M29.6,86.9c-3,3.2-7,2.7-6.9,2.7c2,0.7,5.8,0.2,7.9-2.8c2.5-3.6,0.3-7.5,0.3-7.5C31,80.2,32.6,83.7,29.6,86.9z
		"/>
</g>
<g>
	<ellipse transform="matrix(0.6785 -0.7346 0.7346 0.6785 -227.0336 198.998)" class="st15" cx="113.8" cy="358.9" rx="5" ry="5"/>
	<path class="st21" d="M112.1,355.7"/>
	<path class="st24" d="M110.3,355.8c-0.4,0.4-0.6,0.9-0.8,1.4c-0.2,0.4-0.3,0.9-0.3,1.3s0.2,0.9,0.6,1.2s1,0.6,1.6,0.3
		c0.7-0.4,0.6-1.2,0.4-1.5c-0.1-0.2-0.3-0.5-0.4-0.7c-0.1-0.3-0.2-0.6-0.2-0.9s0.2-0.7,0.6-0.9c0.4-0.3,1-0.4,1.5-0.8
		c0.1-0.1,0.3-0.2,0.3-0.4c0-0.5-1.3,0-1.6,0C111.2,355.1,110.7,355.4,110.3,355.8z"/>
	<path class="st7" d="M117.3,361.7c-2.1,2.3-4.9,1.9-4.9,1.9c1.5,0.5,4.1,0.2,5.6-2c1.8-2.6,0.2-5.3,0.2-5.3
		C118.3,357,119.4,359.5,117.3,361.7z"/>
</g>
<g>
	
		<ellipse transform="matrix(0.6785 -0.7346 0.7346 0.6785 -116.1902 60.3918)" class="st5" cx="10.9" cy="162.9" rx="8.5" ry="8.5"/>
	<path class="st25" d="M8,157.7"/>
	<path class="st3" d="M5,157.9c-0.7,0.7-1,1.5-1.4,2.3c-0.3,0.7-0.5,1.5-0.5,2.2s0.3,1.5,0.9,2c0.7,0.5,1.8,1,2.7,0.5
		c1.2-0.7,0.9-2,0.7-2.5c-0.2-0.4-0.5-0.8-0.7-1.2c-0.2-0.5-0.4-1-0.3-1.6s0.4-1.1,0.9-1.5c0.7-0.5,1.8-0.8,2.5-1.3
		c0.2-0.2,0.5-0.4,0.5-0.7c0-0.9-2.2-0.1-2.7,0.1C6.6,156.6,5.7,157.2,5,157.9z"/>
	<path class="st7" d="M16.8,167.9c-3.6,3.8-8.3,3.3-8.3,3.3c2.5,0.8,6.9,0.3,9.4-3.4c3-4.3,0.4-9,0.4-8.9
		C18.5,159.9,20.4,164,16.8,167.9z"/>
</g>
<g>
	
		<ellipse transform="matrix(0.6785 -0.7346 0.7346 0.6785 -115.944 101.2775)" class="st1" cx="57.7" cy="183.1" rx="2.6" ry="2.6"/>
	<path class="st26" d="M56.8,181.5"/>
	<path class="st3" d="M55.9,181.6c-0.2,0.2-0.3,0.5-0.4,0.7s-0.1,0.4-0.1,0.7s0.1,0.4,0.3,0.6s0.6,0.3,0.8,0.1
		c0.4-0.2,0.3-0.6,0.2-0.8c0-0.1-0.1-0.2-0.2-0.4c-0.1-0.1-0.1-0.3-0.1-0.5s0.1-0.3,0.3-0.5c0.2-0.1,0.5-0.2,0.8-0.4
		c0.1,0,0.1-0.1,0.1-0.2c0-0.2-0.7,0-0.9,0C56.4,181.1,56.1,181.3,55.9,181.6z"/>
	<path class="st4" d="M59.5,184.6c-1.1,1.1-2.6,1-2.5,1c0.8,0.2,2.1,0.1,2.9-1c0.9-1.3,0.1-2.7,0.1-2.7
		C60,182.1,60.6,183.4,59.5,184.6z"/>
</g>
<g>
	<ellipse transform="matrix(0.6785 -0.7346 0.7346 0.6785 -19.8657 22.3496)" class="st1" cx="15.6" cy="33.9" rx="2.9" ry="2.9"/>
	<path class="st27" d="M14.6,32.1"/>
	<path class="st24" d="M13.5,32.2c-0.2,0.2-0.3,0.5-0.5,0.8c-0.1,0.2-0.2,0.5-0.2,0.7s0.1,0.5,0.3,0.7s0.6,0.3,0.9,0.2
		c0.4-0.2,0.3-0.7,0.2-0.9c0-0.1-0.1-0.3-0.2-0.4c0-0.3-0.1-0.4,0-0.6c0-0.1,0.1-0.4,0.3-0.5c0.2-0.2,0.6-0.2,0.9-0.4
		c0.1,0,0.2-0.1,0.1-0.2c0-0.3-0.8,0-0.9,0C14.1,31.8,13.8,32,13.5,32.2z"/>
	<path class="st4" d="M17.5,35.5c-1.2,1.3-2.8,1.1-2.8,1.1c0.8,0.3,2.3,0.1,3.2-1.1c1-1.5,0.1-3,0.1-3
		C18.1,32.9,18.7,34.2,17.5,35.5z"/>
</g>
<g>
	
		<ellipse transform="matrix(0.6785 -0.7346 0.7346 0.6785 -191.9659 218.8977)" class="st1" cx="154.1" cy="328.8" rx="1.9" ry="1.9"/>
	<path class="st28" d="M153.4,327.6"/>
	<path class="st29" d="M152.7,327.7c-0.1,0.1-0.2,0.3-0.3,0.5c0,0.1-0.1,0.3-0.1,0.5c0,0.1,0,0.3,0.2,0.4c0.1,0.1,0.4,0.2,0.6,0.1
		c0.3-0.1,0.2-0.4,0.1-0.6c0-0.1-0.1-0.2-0.1-0.3c0-0.1-0.1-0.2,0-0.4c0-0.1,0.1-0.2,0.2-0.3c0.1-0.1,0.4-0.2,0.6-0.3l0.1-0.1
		c0-0.2-0.5,0-0.6,0C153.1,327.3,152.9,327.5,152.7,327.7z"/>
	<path class="st30" d="M155.4,329.8c-0.8,0.9-1.8,0.7-1.8,0.7c0.6,0.2,1.6,0,2.1-0.8c0.7-0.9,0.1-2,0.1-2
		C155.8,328.1,156.2,329,155.4,329.8z"/>
</g>
<g>
	<ellipse transform="matrix(0.6785 -0.7346 0.7346 0.6785 -156.9418 198.1501)" class="st8" cx="147.9" cy="278.4" rx="3" ry="3"/>
	<path class="st31" d="M146.9,276.5"/>
	<path class="st3" d="M145.8,276.6c-0.2,0.2-0.4,0.5-0.5,0.8c-0.1,0.2-0.2,0.5-0.2,0.8s0.1,0.5,0.3,0.7s0.6,0.3,0.9,0.2
		c0.4-0.2,0.3-0.7,0.2-0.9c0-0.1-0.1-0.3-0.2-0.4c-0.1-0.2-0.1-0.4-0.1-0.6s0.1-0.4,0.3-0.5c0.2-0.2,0.6-0.3,0.9-0.4
		c0.1,0,0.2-0.1,0.2-0.2c0-0.3-0.8,0-0.9,0C146.4,276.1,146.1,276.4,145.8,276.6z"/>
	<path class="st14" d="M149.9,280.1c-1.2,1.3-2.9,1.1-2.9,1.1c0.9,0.3,2.4,0.1,3.3-1.2c1-1.5,0.1-3.1,0.1-3.1
		C150.6,277.3,151.2,278.7,149.9,280.1z"/>
</g>
<g>
	
		<ellipse transform="matrix(0.6785 -0.7346 0.7346 0.6785 -236.8458 143.2993)" class="st1" cx="45.3" cy="342.2" rx="6.8" ry="6.8"/>
	<path class="st32" d="M43,338"/>
	<path class="st3" d="M40.6,338.2c-0.5,0.6-0.9,1.2-1.1,1.8c-0.2,0.6-0.4,1.1-0.4,1.8c0,0.6,0.2,1.2,0.8,1.6
		c0.5,0.4,1.4,0.8,2.1,0.4c0.9-0.5,0.8-1.6,0.6-2c-0.1-0.3-0.4-0.7-0.5-1c-0.2-0.4-0.3-0.9-0.2-1.3s0.3-0.9,0.8-1.2
		c0.6-0.4,1.4-0.6,2-1c0.2-0.1,0.4-0.3,0.4-0.5c0-0.7-1.8-0.1-2.2,0C41.9,337.1,41.2,337.6,40.6,338.2z"/>
	<path class="st30" d="M50.1,346.1c-2.8,3-6.7,2.6-6.6,2.6c1.9,0.7,5.5,0.2,7.5-2.7c2.4-3.5,0.3-7.2,0.3-7.1
		C51.4,339.7,52.9,343.1,50.1,346.1z"/>
</g>
<line class="st0" x1="108.9" y1="154.8" x2="102.7" y2="185.6"/>
<g>
	
		<ellipse transform="matrix(0.6785 -0.7346 0.7346 0.6785 -78.6901 129.7401)" class="st5" cx="108.9" cy="154.8" rx="3.6" ry="3.6"/>
	<path class="st33" d="M107.6,152.6"/>
	<path class="st3" d="M106.4,152.7c-0.3,0.3-0.4,0.6-0.6,0.9c-0.1,0.3-0.2,0.6-0.2,0.9c0,0.3,0.1,0.6,0.4,0.8s0.8,0.4,1.1,0.2
		c0.5-0.3,0.4-0.8,0.3-1s-0.2-0.3-0.3-0.5c-0.1-0.2-0.1-0.4-0.1-0.7c0-0.2,0.2-0.5,0.4-0.6c0.3-0.2,0.7-0.3,1-0.5
		c0.1-0.1,0.2-0.2,0.2-0.3c0-0.3-0.9,0-1.1,0C107.1,152.1,106.7,152.4,106.4,152.7z"/>
	<path class="st30" d="M111.3,156.8c-1.5,1.6-3.5,1.4-3.5,1.4c1,0.3,2.9,0.1,3.9-1.4c1.2-1.8,0.2-3.8,0.2-3.7
		C112,153.5,112.8,155.3,111.3,156.8z"/>
</g>
<g>
	<ellipse transform="matrix(0.6785 -0.7346 0.7346 0.6785 -41.1601 59.8638)" class="st5" cx="47.8" cy="77" rx="2.9" ry="2.9"/>
	<path class="st27" d="M46.8,75.2"/>
	<path class="st3" d="M45.7,75.3c-0.2,0.2-0.3,0.5-0.5,0.8c-0.1,0.2-0.2,0.5-0.2,0.7s0.1,0.5,0.3,0.7s0.6,0.3,0.9,0.2
		c0.4-0.2,0.3-0.7,0.2-0.9c0-0.1-0.1-0.3-0.2-0.4c-0.1-0.2-0.1-0.4-0.1-0.5c0-0.2,0.1-0.4,0.3-0.5c0.2-0.2,0.6-0.2,0.9-0.4
		c0.1,0,0.2-0.1,0.1-0.2c0-0.3-0.8,0-0.9,0C46.3,74.8,45.9,75,45.7,75.3z"/>
	<path class="st7" d="M49.7,78.6c-1.2,1.3-2.8,1.1-2.8,1.1c0.8,0.3,2.3,0.1,3.2-1.1c1-1.5,0.1-3,0.1-3
		C50.3,75.9,50.9,77.3,49.7,78.6z"/>
</g>
<g>
	
		<ellipse transform="matrix(0.6785 -0.7346 0.7346 0.6785 -102.7931 134.872)" class="st1" cx="102.7" cy="184.9" rx="2.9" ry="2.9"/>
	<path class="st27" d="M101.7,183.1"/>
	<path class="st3" d="M100.6,183.2c-0.2,0.2-0.3,0.5-0.5,0.8c-0.1,0.2-0.2,0.5-0.2,0.7s0.1,0.5,0.3,0.7c0.2,0.2,0.6,0.3,0.9,0.2
		c0.4-0.2,0.3-0.7,0.2-0.9c0-0.1-0.1-0.3-0.2-0.4c-0.1-0.2-0.1-0.4-0.1-0.5c0-0.2,0.1-0.4,0.3-0.5c0.2-0.2,0.6-0.2,0.9-0.4
		c0.1,0,0.2-0.1,0.1-0.2c0-0.3-0.8,0-0.9,0C101.2,182.8,100.9,183,100.6,183.2z"/>
	<path class="st4" d="M104.6,186.5c-1.2,1.3-2.8,1.1-2.8,1.1c0.8,0.3,2.3,0.1,3.2-1.1c1-1.5,0.1-3,0.1-3
		C105.2,183.9,105.8,185.2,104.6,186.5z"/>
</g>
<g>
	
		<ellipse transform="matrix(0.6785 -0.7346 0.7346 0.6785 -339.7136 278.9827)" class="st1" cx="148.9" cy="527.6" rx="2.6" ry="2.6"/>
	<path class="st26" d="M148,526"/>
	<path class="st3" d="M147.1,526.1c-0.2,0.2-0.3,0.5-0.4,0.7c-0.1,0.2-0.1,0.4-0.1,0.7s0.1,0.4,0.3,0.6c0.2,0.2,0.6,0.3,0.8,0.1
		c0.4-0.2,0.3-0.6,0.2-0.8c0-0.1-0.1-0.2-0.2-0.4c-0.1-0.1-0.1-0.3-0.1-0.5s0.1-0.3,0.3-0.5c0.2-0.1,0.5-0.2,0.8-0.4
		c0.1,0,0.1-0.1,0.1-0.2c0-0.2-0.7,0-0.9,0C147.6,525.6,147.3,525.8,147.1,526.1z"/>
	<path class="st4" d="M150.7,529.1c-1.1,1.1-2.6,1-2.5,1c0.8,0.2,2.1,0.1,2.9-1c0.9-1.3,0.1-2.7,0.1-2.7
		C151.2,526.6,151.8,527.9,150.7,529.1z"/>
</g>
<line class="st0" x1="68.9" y1="674.3" x2="21.3" y2="701.9"/>
<line class="st0" x1="24.5" y1="615" x2="21.3" y2="701.9"/>
<line class="st0" x1="67" y1="234.6" x2="20.6" y2="231.5"/>
<g>
	
		<ellipse transform="matrix(0.6785 -0.7346 0.7346 0.6785 -151.005 125.4064)" class="st8" cx="67.8" cy="235.2" rx="3.6" ry="3.6"/>
	<path class="st33" d="M66.5,233"/>
	<path class="st3" d="M65.2,233.1c-0.3,0.3-0.4,0.6-0.6,0.9c-0.1,0.3-0.2,0.6-0.2,0.9c0,0.3,0.1,0.6,0.4,0.8s0.8,0.4,1.1,0.2
		c0.5-0.3,0.4-0.8,0.3-1s-0.2-0.3-0.3-0.5s-0.1-0.4-0.1-0.7c0-0.2,0.2-0.5,0.4-0.6c0.3-0.2,0.7-0.3,1-0.5c0.1-0.1,0.2-0.2,0.2-0.3
		c0-0.3-0.9,0-1.1,0C65.9,232.5,65.5,232.8,65.2,233.1z"/>
	<path class="st14" d="M70.2,237.2c-1.5,1.6-3.5,1.4-3.5,1.4c1,0.3,2.9,0.1,3.9-1.4c1.2-1.8,0.2-3.8,0.2-3.7
		C70.9,233.9,71.6,235.6,70.2,237.2z"/>
</g>
<g>
	<ellipse transform="matrix(0.6785 -0.7346 0.7346 0.6785 -163.1442 90.6291)" class="st1" cx="22" cy="231.7" rx="2.9" ry="2.9"/>
	<path class="st27" d="M21,229.9"/>
	<path class="st3" d="M19.9,230c-0.2,0.2-0.3,0.5-0.5,0.8c-0.1,0.2-0.2,0.5-0.2,0.7s0.1,0.5,0.3,0.7c0.2,0.2,0.6,0.3,0.9,0.2
		c0.4-0.2,0.3-0.7,0.2-0.9c0-0.1-0.1-0.3-0.2-0.4c-0.1-0.2-0.1-0.4-0.1-0.5c0-0.2,0.1-0.4,0.3-0.5c0.2-0.2,0.6-0.2,0.9-0.4
		c0.1,0,0.2-0.1,0.1-0.2c0-0.3-0.8,0-0.9,0C20.5,229.6,20.2,229.8,19.9,230z"/>
	<path class="st4" d="M23.9,233.3c-1.2,1.3-2.8,1.1-2.8,1.1c0.8,0.3,2.3,0.1,3.2-1.1c1-1.5,0.1-3,0.1-3
		C24.5,230.7,25.1,232,23.9,233.3z"/>
</g>
<line class="st0" x1="-0.5" y1="249" x2="20" y2="233.8"/>
<g>
	
		<ellipse transform="matrix(0.6785 -0.7346 0.7346 0.6785 -391.6633 248.082)" class="st5" cx="87.6" cy="571.5" rx="4.4" ry="4.4"/>
	<path class="st18" d="M86.1,568.8"/>
	<path class="st3" d="M84.6,568.9c-0.3,0.4-0.5,0.8-0.7,1.2c-0.1,0.4-0.3,0.8-0.3,1.1c0,0.4,0.1,0.8,0.5,1c0.3,0.3,0.9,0.5,1.4,0.3
		c0.6-0.3,0.5-1,0.4-1.3c-0.1-0.2-0.2-0.4-0.3-0.6c-0.1-0.3-0.2-0.6-0.1-0.9c0-0.3,0.2-0.6,0.5-0.8c0.4-0.3,0.9-0.4,1.3-0.7
		c0.1-0.1,0.2-0.2,0.2-0.3c0-0.4-1.1,0-1.4,0C85.4,568.2,84.9,568.5,84.6,568.9z"/>
	<path class="st7" d="M90.7,574c-1.8,1.9-4.3,1.7-4.3,1.7c1.3,0.4,3.6,0.1,4.9-1.8c1.5-2.2,0.2-4.6,0.2-4.6
		C91.5,569.9,92.5,572.1,90.7,574z"/>
</g>
<g>
	
		<ellipse transform="matrix(0.6785 -0.7346 0.7346 0.6785 -477.0535 300.8659)" class="st15" cx="105.2" cy="695.4" rx="3.4" ry="3.4"/>
	<path class="st20" d="M104.1,693.3"/>
	<path class="st17" d="M102.9,693.4c-0.2,0.3-0.4,0.6-0.5,0.9s-0.2,0.6-0.2,0.9s0.1,0.6,0.4,0.8c0.2,0.2,0.7,0.4,1,0.2
		c0.5-0.3,0.4-0.8,0.3-1c0-0.2-0.2-0.3-0.2-0.5c-0.1-0.2-0.1-0.4-0.1-0.6s0.1-0.4,0.4-0.6s0.7-0.3,1-0.5c0.1,0,0.2-0.1,0.2-0.3
		c0-0.3-0.9,0-1.1,0C103.6,692.9,103.2,693.1,102.9,693.4z"/>
	<path class="st7" d="M107.6,697.3c-1.4,1.5-3.3,1.3-3.3,1.3c0.9,0.3,2.7,0.1,3.7-1.3c1.2-1.7,0.1-3.6,0.1-3.6
		C108.2,694.2,109,695.8,107.6,697.3z"/>
</g>
<line class="st0" x1="15.6" y1="490.6" x2="0" y2="533"/>
<line class="st0" x1="-0.1" y1="661.3" x2="21.3" y2="701.9"/>
<g>
	
		<ellipse transform="matrix(0.6785 -0.7346 0.7346 0.6785 -508.7789 241.3089)" class="st1" cx="21.3" cy="701.9" rx="6.8" ry="6.8"/>
	<path class="st32" d="M19,697.7"/>
	<path class="st3" d="M16.6,697.9c-0.5,0.6-0.9,1.2-1.1,1.8c-0.2,0.6-0.4,1.1-0.4,1.8c0,0.6,0.2,1.2,0.8,1.6
		c0.5,0.4,1.4,0.8,2.1,0.4c0.9-0.5,0.8-1.6,0.6-2c-0.1-0.3-0.4-0.7-0.5-1c-0.2-0.4-0.3-0.9-0.2-1.3c0.1-0.4,0.3-0.9,0.8-1.2
		c0.6-0.4,1.4-0.6,2-1c0.2-0.1,0.4-0.3,0.4-0.5c0-0.7-1.8-0.1-2.2,0C17.9,696.8,17.2,697.3,16.6,697.9z"/>
	<path class="st30" d="M26.1,705.8c-2.8,3-6.7,2.6-6.6,2.6c1.9,0.7,5.5,0.2,7.5-2.7c2.4-3.5,0.3-7.2,0.3-7.1
		C27.4,699.4,28.9,702.8,26.1,705.8z"/>
</g>
<line class="st0" x1="0" y1="553" x2="24.5" y2="615"/>
<g>
	<ellipse transform="matrix(0.6785 -0.7346 0.7346 0.6785 -354.8797 169.1286)" class="st1" cx="15.8" cy="490" rx="10" ry="10"/>
	<path class="st34" d="M12.4,483.8"/>
	<path class="st3" d="M8.8,484.1c-0.8,0.8-1.2,1.8-1.6,2.7c-0.3,0.9-0.6,1.7-0.6,2.6s0.3,1.7,1.1,2.3c0.8,0.6,2.1,1.1,3.1,0.6
		c1.4-0.8,1.1-2.3,0.9-2.9c-0.2-0.5-0.5-0.9-0.8-1.4c-0.3-0.6-0.4-1.2-0.3-1.9c0.1-0.7,0.5-1.3,1.1-1.8c0.9-0.6,2-0.9,2.9-1.5
		c0.3-0.2,0.6-0.5,0.6-0.8c0-1-2.6-0.1-3.2,0.1C10.7,482.6,9.6,483.3,8.8,484.1z"/>
	<path class="st4" d="M22.7,495.7c-4.2,4.4-9.8,3.8-9.7,3.8c2.9,0.9,8.1,0.3,11-3.9c3.5-5.1,0.5-10.6,0.5-10.5
		C24.7,486.4,26.9,491.3,22.7,495.7z"/>
</g>
<g>
	
		<ellipse transform="matrix(0.6785 -0.7346 0.7346 0.6785 -473.171 267.3699)" class="st5" cx="68.9" cy="674.3" rx="6.1" ry="6.1"/>
	<path class="st12" d="M66.8,670.6"/>
	<path class="st3" d="M64.7,670.7c-0.5,0.5-0.8,1.1-0.9,1.7c-0.2,0.5-0.4,1-0.4,1.6c0,0.6,0.2,1,0.7,1.4c0.5,0.4,1.3,0.7,1.9,0.4
		c0.9-0.5,0.7-1.4,0.5-1.8c-0.1-0.3-0.3-0.6-0.5-0.9c-0.2-0.4-0.3-0.8-0.2-1.1c0.1-0.3,0.3-0.8,0.7-1.1c0.5-0.4,1.2-0.5,1.8-0.9
		c0.2-0.1,0.3-0.3,0.3-0.5c0-0.6-1.6-0.1-1.9,0C65.8,669.9,65.1,670.2,64.7,670.7z"/>
	<path class="st7" d="M73.1,677.8c-2.6,2.7-5.9,2.3-5.9,2.3c1.8,0.6,4.9,0.2,6.7-2.4c2.1-3.1,0.3-6.4,0.3-6.3
		C74.3,672.2,75.6,675.1,73.1,677.8z"/>
</g>
<g>
	<ellipse transform="matrix(0.6785 -0.7346 0.7346 0.6785 -443.5417 216.491)" class="st15" cx="25.6" cy="615" rx="7.1" ry="7.1"/>
	<path class="st23" d="M24.6,612.2"/>
	<path class="st24" d="M20.6,610.8c-0.5,0.6-0.9,1.3-1.1,1.9c-0.2,0.6-0.4,1.2-0.4,1.8c0,0.6,0.2,1.2,0.8,1.7
		c0.5,0.4,1.5,0.8,2.2,0.4c1-0.6,0.8-1.7,0.6-2.1c-0.1-0.3-0.4-0.7-0.6-1c-0.2-0.4-0.3-0.9-0.2-1.3s0.3-0.9,0.8-1.2
		c0.6-0.4,1.5-0.6,2.1-1c0.2-0.1,0.4-0.3,0.4-0.6c0-0.7-1.8-0.1-2.3,0C22,609.7,21.2,610.2,20.6,610.8z"/>
	<path class="st7" d="M30.5,619.1c-3,3.2-7,2.7-6.9,2.7c2,0.7,5.8,0.2,7.9-2.8c2.5-3.6,0.3-7.5,0.3-7.5
		C31.9,612.4,33.5,615.9,30.5,619.1z"/>
</g>
<line class="st0" x1="75" y1="750.6" x2="32.8" y2="753.4"/>
<g>
	
		<ellipse transform="matrix(0.6785 -0.7346 0.7346 0.6785 -527.0718 296.8294)" class="st5" cx="75.6" cy="750.6" rx="2.8" ry="2.8"/>
	<path class="st6" d="M74.7,748.8"/>
	<path class="st3" d="M73.7,748.9c-0.2,0.2-0.3,0.5-0.4,0.8c-0.1,0.2-0.2,0.5-0.2,0.7s0.1,0.5,0.3,0.7s0.6,0.3,0.9,0.2
		c0.4-0.2,0.3-0.7,0.2-0.8c0-0.1-0.1-0.3-0.2-0.4c-0.1-0.2-0.1-0.3-0.1-0.5s0.1-0.4,0.3-0.5c0.2-0.2,0.6-0.2,0.8-0.4
		c0.1,0,0.1-0.1,0.1-0.2c0-0.3-0.8,0-0.9,0C74.2,748.5,73.9,748.7,73.7,748.9z"/>
	<path class="st7" d="M77.5,752.2c-1.2,1.2-2.7,1-2.7,1.1c0.8,0.3,2.3,0.1,3.1-1.1c1-1.4,0.1-3,0.1-2.9
		C78.1,749.6,78.7,751,77.5,752.2z"/>
</g>
<line class="st0" x1="32.8" y1="753.4" x2="0.8" y2="799"/>
<g>
	
		<ellipse transform="matrix(0.6785 -0.7346 0.7346 0.6785 -542.9358 266.1815)" class="st1" cx="32.6" cy="753.4" rx="2.6" ry="2.6"/>
	<path class="st26" d="M31.7,751.8"/>
	<path class="st3" d="M30.8,751.9c-0.2,0.2-0.3,0.5-0.4,0.7s-0.1,0.4-0.1,0.7s0.1,0.4,0.3,0.6s0.6,0.3,0.8,0.1
		c0.4-0.2,0.3-0.6,0.2-0.8c0-0.1-0.1-0.2-0.2-0.4c-0.1-0.1-0.1-0.3-0.1-0.5s0.1-0.3,0.3-0.5c0.2-0.1,0.5-0.2,0.8-0.4
		c0.1,0,0.1-0.1,0.1-0.2c0-0.2-0.7,0-0.9,0C31.3,751.4,31,751.6,30.8,751.9z"/>
	<path class="st4" d="M34.4,754.9c-1.1,1.1-2.6,1-2.5,1c0.8,0.2,2.1,0.1,2.9-1c0.9-1.3,0.1-2.7,0.1-2.7
		C34.9,752.4,35.5,753.7,34.4,754.9z"/>
</g>
</svg>
