<?xml version="1.0" encoding="utf-8"?>
<!-- Generator: Adobe Illustrator 21.1.0, SVG Export Plug-In . SVG Version: 6.00 Build 0)  -->
<svg version="1.1" id="Layer_1" xmlns="http://www.w3.org/2000/svg" xmlns:xlink="http://www.w3.org/1999/xlink" x="0px" y="0px"
	 viewBox="0 0 261 505" style="enable-background:new 0 0 261 505;" xml:space="preserve">
<style type="text/css">
	.st0{fill:#662D91;}
	.st1{fill:#002075;}
	.st2{fill:#304D78;}
</style>
<g>
	<polygon class="st0" points="37,306.5 22,306.5 14.5,319.5 22,332.5 37,332.5 44.5,319.5 	"/>
	<polygon class="st0" points="61.5,321 46.5,321 39,334 46.5,347 61.5,347 69,334 	"/>
	<polygon class="st0" points="37,335 22,335 14.5,348 22,361 37,361 44.5,348 	"/>
</g>
<g>
	<polygon class="st0" points="62,264.5 47,264.5 39.5,277.5 47,290.5 62,290.5 69.5,277.5 	"/>
	<polygon class="st0" points="86.5,279 71.5,279 64,292 71.5,305 86.5,305 94,292 	"/>
</g>
<g>
	<polygon class="st1" points="86,307.5 71,307.5 63.5,320.5 71,333.5 86,333.5 93.5,320.5 	"/>
	<polygon class="st1" points="110.5,322 95.5,322 88,335 95.5,348 110.5,348 118,335 	"/>
	<polygon class="st1" points="86,336 71,336 63.5,349 71,362 86,362 93.5,349 	"/>
</g>
<g>
	<polygon class="st2" points="13,263.5 -2,263.5 -9.5,276.5 -2,289.5 13,289.5 20.5,276.5 	"/>
	<polygon class="st2" points="37.5,278 22.5,278 15,291 22.5,304 37.5,304 45,291 	"/>
	<polygon class="st2" points="13,292 -2,292 -9.5,305 -2,318 13,318 20.5,305 	"/>
</g>
<g>
	<polygon class="st0" points="37.8,221.5 22.8,221.5 15.3,234.5 22.8,247.5 37.8,247.5 45.3,234.5 	"/>
	<polygon class="st0" points="62.3,236 47.3,236 39.8,249 47.3,262 62.3,262 69.8,249 	"/>
	<polygon class="st0" points="37.8,250 22.8,250 15.3,263 22.8,276 37.8,276 45.3,263 	"/>
</g>
<g>
	<polygon class="st2" points="86.8,222.5 71.8,222.5 64.3,235.5 71.8,248.5 86.8,248.5 94.3,235.5 	"/>
	<polygon class="st2" points="111.3,237 96.3,237 88.8,250 96.3,263 111.3,263 118.8,250 	"/>
	<polygon class="st2" points="86.8,251 71.8,251 64.3,264 71.8,277 86.8,277 94.3,264 	"/>
</g>
<g>
	<polygon class="st0" points="13.8,178.5 -1.3,178.5 -8.8,191.5 -1.3,204.5 13.8,204.5 21.3,191.5 	"/>
	<polygon class="st0" points="38.3,193 23.3,193 15.8,206 23.3,219 38.3,219 45.8,206 	"/>
	<polygon class="st0" points="13.8,207 -1.3,207 -8.8,220 -1.3,233 13.8,233 21.3,220 	"/>
</g>
<g>
	<polygon class="st0" points="11.2,434.5 -3.8,434.5 -11.3,447.5 -3.8,460.5 11.2,460.5 18.7,447.5 	"/>
	<polygon class="st0" points="35.7,449 20.7,449 13.2,462 20.7,475 35.7,475 43.2,462 	"/>
</g>
<g>
	<polygon class="st2" points="36.2,392.5 21.2,392.5 13.7,405.5 21.2,418.5 36.2,418.5 43.7,405.5 	"/>
	<polygon class="st2" points="60.7,407 45.7,407 38.2,420 45.7,433 60.7,433 68.2,420 	"/>
	<polygon class="st2" points="36.2,421 21.2,421 13.7,434 21.2,447 36.2,447 43.7,434 	"/>
</g>
<g>
	<polygon class="st0" points="61.2,349.5 46.2,349.5 38.7,362.5 46.2,375.5 61.2,375.5 68.7,362.5 	"/>
	<polygon class="st0" points="85.7,364 70.7,364 63.2,377 70.7,390 85.7,390 93.2,377 	"/>
	<polygon class="st0" points="61.2,378 46.2,378 38.7,391 46.2,404 61.2,404 68.7,391 	"/>
</g>
<g>
	<polygon class="st1" points="12.2,349.5 -2.8,349.5 -10.3,362.5 -2.8,375.5 12.2,375.5 19.7,362.5 	"/>
	<polygon class="st1" points="36.7,364 21.7,364 14.2,377 21.7,390 36.7,390 44.2,377 	"/>
	<polygon class="st1" points="12.2,378 -2.8,378 -10.3,391 -2.8,404 12.2,404 19.7,391 	"/>
</g>
<g>
	<polygon class="st0" points="63.2,94.5 48.2,94.5 40.7,107.5 48.2,120.5 63.2,120.5 70.7,107.5 	"/>
	<polygon class="st0" points="87.7,109 72.7,109 65.2,122 72.7,135 87.7,135 95.2,122 	"/>
	<polygon class="st0" points="63.2,123 48.2,123 40.7,136 48.2,149 63.2,149 70.7,136 	"/>
</g>
<g>
	<polygon class="st0" points="38,136.5 23,136.5 15.5,149.5 23,162.5 38,162.5 45.5,149.5 	"/>
	<polygon class="st0" points="62.5,151 47.5,151 40,164 47.5,177 62.5,177 70,164 	"/>
	<polygon class="st0" points="38,165 23,165 15.5,178 23,191 38,191 45.5,178 	"/>
</g>
<g>
	<polygon class="st2" points="14,93.5 -1,93.5 -8.5,106.5 -1,119.5 14,119.5 21.5,106.5 	"/>
	<polygon class="st2" points="38.5,108 23.5,108 16,121 23.5,134 38.5,134 46,121 	"/>
	<polygon class="st2" points="14,122 -1,122 -8.5,135 -1,148 14,148 21.5,135 	"/>
</g>
<g>
	<polygon class="st1" points="14,36.8 -1,36.8 -8.5,49.8 -1,62.7 14,62.7 21.5,49.8 	"/>
	<polygon class="st1" points="38.5,51.3 23.5,51.3 16,64.3 23.5,77.2 38.5,77.2 46,64.3 	"/>
	<polygon class="st1" points="14,65.3 -1,65.3 -8.5,78.2 -1,91.2 14,91.2 21.5,78.2 	"/>
</g>
<g>
	<polygon class="st0" points="13.3,7 -1.8,7 -9.3,20 -1.8,33 13.3,33 20.8,20 	"/>
</g>
<polygon class="st0" points="11.2,463 -3.8,463 -11.3,476 -3.8,489 11.2,489 18.7,476 "/>
<polygon class="st0" points="62.2,179 47.2,179 39.7,192 47.2,205 62.2,205 69.7,192 "/>
</svg>
