<?xml version="1.0" encoding="utf-8"?>
<!-- Generator: Adobe Illustrator 21.1.0, SVG Export Plug-In . SVG Version: 6.00 Build 0)  -->
<svg version="1.1" id="Layer_1" xmlns="http://www.w3.org/2000/svg" xmlns:xlink="http://www.w3.org/1999/xlink" x="0px" y="0px"
	 viewBox="0 0 137.6 505" style="enable-background:new 0 0 137.6 505;" xml:space="preserve">
<style type="text/css">
	.st0{fill:#002075;}
	.st1{fill:#304D78;}
</style>
<g>
	<polygon class="st0" points="82.8,322 90.3,335 105.3,335 112.8,322 105.3,309 90.3,309 	"/>
	<polygon class="st0" points="58.3,336.5 65.8,349.5 80.8,349.5 88.3,336.5 80.8,323.5 65.8,323.5 	"/>
	<polygon class="st0" points="82.8,350.5 90.3,363.5 105.3,363.5 112.8,350.5 105.3,337.5 90.3,337.5 	"/>
</g>
<g>
	<polygon class="st0" points="57.8,280 65.3,293 80.3,293 87.8,280 80.3,267 65.3,267 	"/>
	<polygon class="st0" points="33.3,294.5 40.8,307.5 55.8,307.5 63.3,294.5 55.8,281.5 40.8,281.5 	"/>
</g>
<g>
	<polygon class="st0" points="33.8,323 41.3,336 56.3,336 63.8,323 56.3,310 41.3,310 	"/>
	<polygon class="st0" points="9.3,337.5 16.8,350.5 31.8,350.5 39.3,337.5 31.8,324.5 16.8,324.5 	"/>
	<polygon class="st0" points="33.8,351.5 41.3,364.5 56.3,364.5 63.8,351.5 56.3,338.5 41.3,338.5 	"/>
</g>
<g>
	<polygon class="st1" points="106.8,279 114.3,292 129.3,292 136.8,279 129.3,266 114.3,266 	"/>
	<polygon class="st1" points="82.3,293.5 89.8,306.5 104.8,306.5 112.3,293.5 104.8,280.5 89.8,280.5 	"/>
	<polygon class="st1" points="106.8,307.5 114.3,320.5 129.3,320.5 136.8,307.5 129.3,294.5 114.3,294.5 	"/>
</g>
<g>
	<polygon class="st0" points="82,237 89.5,250 104.5,250 112,237 104.5,224 89.5,224 	"/>
	<polygon class="st0" points="57.5,251.5 65,264.5 80,264.5 87.5,251.5 80,238.5 65,238.5 	"/>
	<polygon class="st0" points="82,265.5 89.5,278.5 104.5,278.5 112,265.5 104.5,252.5 89.5,252.5 	"/>
</g>
<g>
	<polygon class="st1" points="33,238 40.5,251 55.5,251 63,238 55.5,225 40.5,225 	"/>
	<polygon class="st1" points="8.5,252.5 16,265.5 31,265.5 38.5,252.5 31,239.5 16,239.5 	"/>
	<polygon class="st1" points="33,266.5 40.5,279.5 55.5,279.5 63,266.5 55.5,253.5 40.5,253.5 	"/>
</g>
<g>
	<polygon class="st0" points="106,194 113.5,207 128.6,207 136.1,194 128.6,181 113.5,181 	"/>
	<polygon class="st0" points="81.5,208.5 89,221.5 104,221.5 111.5,208.5 104,195.5 89,195.5 	"/>
	<polygon class="st0" points="106,222.5 113.5,235.5 128.6,235.5 136.1,222.5 128.6,209.5 113.5,209.5 	"/>
</g>
<g>
	<polygon class="st0" points="108.6,450 116.1,463 131.1,463 138.6,450 131.1,437 116.1,437 	"/>
	<polygon class="st0" points="84.1,464.5 91.6,477.5 106.6,477.5 114.1,464.5 106.6,451.5 91.6,451.5 	"/>
</g>
<g>
	<polygon class="st1" points="83.6,408 91.1,421 106.1,421 113.6,408 106.1,395 91.1,395 	"/>
	<polygon class="st1" points="59.1,422.5 66.6,435.5 81.6,435.5 89.1,422.5 81.6,409.5 66.6,409.5 	"/>
	<polygon class="st1" points="83.6,436.5 91.1,449.5 106.1,449.5 113.6,436.5 106.1,423.5 91.1,423.5 	"/>
</g>
<g>
	<polygon class="st0" points="58.6,365 66.1,378 81.1,378 88.6,365 81.1,352 66.1,352 	"/>
	<polygon class="st0" points="34.1,379.5 41.6,392.5 56.6,392.5 64.1,379.5 56.6,366.5 41.6,366.5 	"/>
	<polygon class="st0" points="58.6,393.5 66.1,406.5 81.1,406.5 88.6,393.5 81.1,380.5 66.1,380.5 	"/>
</g>
<g>
	<polygon class="st0" points="107.6,365 115.1,378 130.1,378 137.6,365 130.1,352 115.1,352 	"/>
	<polygon class="st0" points="83.1,379.5 90.6,392.5 105.6,392.5 113.1,379.5 105.6,366.5 90.6,366.5 	"/>
	<polygon class="st0" points="107.6,393.5 115.1,406.5 130.1,406.5 137.6,393.5 130.1,380.5 115.1,380.5 	"/>
</g>
<g>
	<polygon class="st0" points="56.6,110 64.1,123 79.1,123 86.6,110 79.1,97 64.1,97 	"/>
	<polygon class="st0" points="32.1,124.5 39.6,137.5 54.6,137.5 62.1,124.5 54.6,111.5 39.6,111.5 	"/>
	<polygon class="st0" points="56.6,138.5 64.1,151.5 79.1,151.5 86.6,138.5 79.1,125.5 64.1,125.5 	"/>
</g>
<g>
	<polygon class="st0" points="81.8,152 89.3,165 104.3,165 111.8,152 104.3,139 89.3,139 	"/>
	<polygon class="st0" points="57.3,166.5 64.8,179.5 79.8,179.5 87.3,166.5 79.8,153.5 64.8,153.5 	"/>
	<polygon class="st0" points="81.8,180.5 89.3,193.5 104.3,193.5 111.8,180.5 104.3,167.5 89.3,167.5 	"/>
</g>
<g>
	<polygon class="st1" points="105.8,109 113.3,122 128.3,122 135.8,109 128.3,96 113.3,96 	"/>
	<polygon class="st1" points="81.3,123.5 88.8,136.5 103.8,136.5 111.3,123.5 103.8,110.5 88.8,110.5 	"/>
	<polygon class="st1" points="105.8,137.5 113.3,150.5 128.3,150.5 135.8,137.5 128.3,124.5 113.3,124.5 	"/>
</g>
<g>
	<polygon class="st0" points="105.8,52.3 113.3,65.2 128.3,65.2 135.8,52.3 128.3,39.3 113.3,39.3 	"/>
	<polygon class="st0" points="81.3,66.8 88.8,79.7 103.8,79.7 111.3,66.8 103.8,53.8 88.8,53.8 	"/>
	<polygon class="st0" points="105.8,80.7 113.3,93.7 128.3,93.7 135.8,80.7 128.3,67.8 113.3,67.8 	"/>
</g>
<g>
	<polygon class="st0" points="106.5,22.5 114,35.5 129.1,35.5 136.6,22.5 129.1,9.5 114,9.5 	"/>
</g>
<polygon class="st0" points="108.6,478.5 116.1,491.5 131.1,491.5 138.6,478.5 131.1,465.5 116.1,465.5 "/>
<polygon class="st0" points="57.6,194.5 65.1,207.5 80.1,207.5 87.6,194.5 80.1,181.5 65.1,181.5 "/>
</svg>
